<!--?xml version="1.0" encoding="utf-8"?-->
<!-- Generator: Adobe Illustrator 18.1.1, SVG Export Plug-In . SVG Version: 6.00 Build 0)  -->

<svg version="1.1" id="_x32_" xmlns="http://www.w3.org/2000/svg" xmlns:xlink="http://www.w3.org/1999/xlink" x="0px" y="0px" viewBox="0 0 512 512" style="width: 256px; height: 256px; opacity: 1;" xml:space="preserve">
<style type="text/css">
	.st0{fill:#4B4B4B;}
</style>
<g>
	<path class="st0" d="M195.544,232.593c6.792-0.484,18.847,0.371,27.573-0.102c0.316,36.176-43.496,54.866-44.98,124.136h172.68
		c-0.945-9.446-1.462-19.139-1.439-29.294c0-32.802,5.217-70.372,17.384-120.648c2.43-10.031,3.598-20.994,3.598-32.184
		c0-16.564-2.563-33.622-7.197-48.962c-4.588-15.327-11.289-28.911-19.206-38.514c-5.264-6.421-10.998-11.043-16.868-13.561
		c-3.373-1.44-6.77-2.239-10.323-2.34l-6.185-0.191l-0.135-6.184c-0.314-12.752-3.62-23.345-8.479-32.296
		c-4.858-8.939-11.312-16.204-17.857-21.95c-4.835-4.24-9.694-7.624-13.944-10.21c-0.135-0.034-0.248-0.068-0.382-0.09
		c-17.633-3.926-33.556,50.917-33.556,50.917c-31.329,13.697-64.637,54.831-82.269,70.496c0,0-59.082,58.609-68.528,66.582
		c-27.865,23.502,12.303,60.229,40.033,40.045l-4.341,4.352c-6.972,10.446,2.159,22.636,22.176,15.675
		C156.298,243.747,172.559,234.235,195.544,232.593z" style="fill: rgb(229, 0, 49);"></path>
	<path class="st0" d="M160.504,438.199h257.851c0,0,17.633-3.464,17.633-20.826c0-26.01-35.243-26.854-35.243-42.462H178.137
		c0,15.608-35.265,16.452-35.265,42.462C142.872,434.735,160.504,438.199,160.504,438.199z" style="fill: rgb(229, 0, 49);"></path>
	<polygon class="st0" points="160.504,456.472 146.133,480.661 146.133,512 432.727,512 432.727,480.661 418.355,456.472 	" style="fill: rgb(229, 0, 49);"></polygon>
	<path class="st0" d="M323.176,58.72c5.668,1.034,11.043,3.273,15.946,6.409c6.612,4.24,12.436,10.065,17.564,16.98
		c10.212,13.832,17.701,32.049,22.176,51.773c2.969,13.157,4.566,26.978,4.566,40.618c0,12.1-1.26,24.042-3.958,35.253
		c-12.033,49.682-17.048,86.194-17.048,117.579c0,10.2,0.54,19.87,1.529,29.294h36.794c0,0-7.084-65.784,8.546-126.508
		C442.937,99.552,363.21,29.764,312.044,23.782c0.359,0.641,0.741,1.271,1.102,1.923C318.296,35.016,322.075,46.036,323.176,58.72z" style="fill: rgb(229, 0, 49);"></path>
</g>
</svg>
